<svg id="Layer_1" data-name="Layer 1" xmlns="http://www.w3.org/2000/svg" xmlns:xlink="http://www.w3.org/1999/xlink" viewBox="0 0 696.54 572.41"><defs><style>.cls-1,.cls-11,.cls-12,.cls-13,.cls-14,.cls-15,.cls-2,.cls-6,.cls-8{fill:none;}.cls-1{clip-rule:evenodd;}.cls-3{clip-path:url(#clip-path);}.cls-4{clip-path:url(#clip-path-2);}.cls-5{fill:#181818;}.cls-11,.cls-12,.cls-13,.cls-14,.cls-15,.cls-6,.cls-8{stroke:#181818;stroke-miterlimit:10;}.cls-7{font-size:12px;fill:#231f20;font-family:ArialMT, Arial;}.cls-8{stroke-width:1.25px;}.cls-9{letter-spacing:-0.02em;}.cls-10{letter-spacing:-0.06em;}.cls-11{stroke-dasharray:3.77 3.77 3.77 3.77;}.cls-12{stroke-dasharray:3.77 3.77 3.77 3.77 3.77 3.77;}.cls-13{stroke-dasharray:4.02 4.02 4.02 4.02;}.cls-14{stroke-dasharray:4.02 4.02 4.02 4.02 4.02 4.02;}.cls-15{stroke-width:1.01px;stroke-dasharray:4.03 4.03 4.03 4.03 4.03 4.03;}.cls-16{letter-spacing:-0.11em;}</style><clipPath id="clip-path"><polygon id="SVGID" class="cls-1" points="95.82 565.86 194.95 565.86 194.95 450.24 95.82 450.24 95.82 565.86 95.82 565.86"/></clipPath><clipPath id="clip-path-2"><polygon id="SVGID-2" data-name="SVGID" class="cls-2" points="95.82 565.86 194.95 565.86 194.95 450.24 95.82 450.24 95.82 565.86 95.82 565.86"/></clipPath></defs><g class="cls-3"><g class="cls-4"><path class="cls-5" d="M145.4,450.24c-27.39,0-49.58,7.4-49.58,16.52v79.82c0,12.67,24.79,19.28,49.58,19.28S195,559.25,195,546.58V466.76c0-9.12-22.19-16.52-49.59-16.52Zm0,8.26c22.85,0,36.69,5.2,40.58,8.26-3.89,3.06-17.73,8.26-40.58,8.26s-36.69-5.2-40.58-8.26c3.89-3.06,17.73-8.26,40.58-8.26Zm0,99.1c-25.62,0-41.32-7.14-41.32-11V475.89c8.88,4.46,24,7.39,41.32,7.39s32.44-2.93,41.32-7.39v70.69c0,3.88-15.7,11-41.32,11Z"/></g></g><circle class="cls-6" cx="144.75" cy="422.08" r="13.11"/><path class="cls-6" d="M128,421.16a16.58,16.58,0,0,1,33.15,0"/><line class="cls-6" x1="144.4" y1="434.59" x2="144.4" y2="466.18"/><text class="cls-7" transform="translate(105.7 511.05)">Subsystem DB<tspan x="15.67" y="14.4">[PGSQL]</tspan></text><rect class="cls-8" x="201.76" y="69.43" width="135.83" height="76.34"/><text class="cls-7" transform="translate(241.39 82.27)">Subsystem<tspan x="13.67" y="14.4">[Java]</tspan><tspan x="-24.01" y="28.8">Manages the CRUD</tspan><tspan x="-6.68" y="43.2">operations on</tspan><tspan x="3" y="57.6">Subsytem</tspan></text><rect class="cls-8" x="179.85" y="269.08" width="135.83" height="76.34"/><text class="cls-7" transform="translate(205.13 281.92)">Subsystem User<tspan x="28" y="14.4">[Java]</tspan><tspan x="-10.68" y="28.8">Keeps track of users</tspan><tspan x="12.67" y="43.2">of particular</tspan><tspan x="14.99" y="57.6">connection</tspan></text><rect class="cls-8" x="458.25" y="69.43" width="135.83" height="76.34"/><text class="cls-7" transform="translate(497.87 82.27)">Subsystem<tspan x="13.67" y="14.4">[Java]</tspan><tspan x="-25.68" y="28.8">CRUD operations on</tspan><tspan x="-11.57" y="43.2">Subsytem</tspan><tspan class="cls-9" x="41.79" y="43.2"> </tspan><tspan class="cls-10" x="44.91" y="43.2">T</tspan><tspan x="51.57" y="43.2">ype</tspan><tspan x="-28.35" y="57.6">(not yet implemented)</tspan></text><rect class="cls-8" x="426.53" y="268.22" width="135.83" height="76.34"/><text class="cls-7" transform="translate(436.46 281.06)">Connection Properties<tspan x="43.36" y="14.4">[Java]</tspan><tspan x="-1.33" y="28.8">Encrypts the password</tspan><tspan x="12.67" y="43.2">using credentials </tspan><tspan x="35.69" y="57.6">manager</tspan></text><circle class="cls-6" cx="388.27" cy="107.68" r="13.11"/><path class="cls-6" d="M387.36,124.42a16.58,16.58,0,0,1,0-33.15"/><line class="cls-6" x1="337.6" y1="107.6" x2="370.89" y2="107.84"/><line class="cls-6" x1="401.38" y1="107.6" x2="458.25" y2="108.02"/><circle class="cls-6" cx="384.96" cy="185.26" r="13.11"/><path class="cls-6" d="M368.23,184.35a16.58,16.58,0,0,1,33.15,0"/><line class="cls-6" x1="337.6" y1="130.81" x2="384.8" y2="130.81"/><line class="cls-6" x1="384.8" y1="130.81" x2="384.8" y2="167.88"/><line class="cls-6" x1="384.96" y1="198.37" x2="384.96" y2="219.77"/><line class="cls-6" x1="384.96" y1="219.77" x2="504.49" y2="219.77"/><line class="cls-6" x1="504.49" y1="219.77" x2="504.49" y2="268.22"/><circle class="cls-6" cx="366.09" cy="307.41" r="13.11"/><path class="cls-6" d="M367,290.68a16.58,16.58,0,0,1,0,33.15"/><line class="cls-6" x1="315.68" y1="307.41" x2="352.99" y2="307.41"/><line class="cls-6" x1="384.21" y1="306.39" x2="426.53" y2="306.39"/><circle class="cls-6" cx="505.18" cy="421.82" r="13.11"/><path class="cls-6" d="M488.45,420.91a16.58,16.58,0,0,1,33.15,0"/><line class="cls-6" x1="504.83" y1="434.34" x2="504.83" y2="465.92"/><polyline class="cls-6" points="572.32 535.81 572.32 537.81 570.32 537.81"/><line class="cls-11" x1="566.55" y1="537.81" x2="553.37" y2="537.81"/><line class="cls-12" x1="551.48" y1="537.81" x2="440.34" y2="537.81"/><polyline class="cls-6" points="438.46 537.81 436.46 537.81 436.46 535.81"/><line class="cls-13" x1="436.46" y1="531.78" x2="436.46" y2="517.7"/><line class="cls-14" x1="436.46" y1="515.68" x2="436.46" y2="469.4"/><polyline class="cls-6" points="436.46 467.39 436.46 465.39 438.46 465.39"/><line class="cls-11" x1="442.23" y1="465.39" x2="455.41" y2="465.39"/><line class="cls-12" x1="457.3" y1="465.39" x2="568.44" y2="465.39"/><polyline class="cls-6" points="570.32 465.39 572.32 465.39 572.32 467.39"/><line class="cls-13" x1="572.32" y1="471.42" x2="572.32" y2="485.5"/><line class="cls-14" x1="572.32" y1="487.51" x2="572.32" y2="533.79"/><line class="cls-6" x1="144.61" y1="404.7" x2="145.4" y2="99.08"/><line class="cls-6" x1="145.39" y1="99.08" x2="201.76" y2="99.08"/><line class="cls-6" x1="504.49" y1="345.43" x2="504.49" y2="404.44"/><rect class="cls-15" x="34.75" y="47.36" width="645.19" height="357.08"/><circle class="cls-6" cx="262.25" cy="20.39" r="13.11"/><line class="cls-6" x1="262.25" y1="33.5" x2="262.25" y2="69.43"/><circle class="cls-6" cx="526.17" cy="20.39" r="13.11"/><line class="cls-6" x1="526.17" y1="33.5" x2="526.17" y2="58.15"/><line class="cls-6" x1="526.17" y1="58.15" x2="541.91" y2="58.15"/><line class="cls-6" x1="541.91" y1="58.15" x2="542.3" y2="69.43"/><text class="cls-7" transform="translate(38.96 64.35)">Subsystem Manager Microservice<tspan x="0" y="14.4">[Spring Boot]</tspan></text><text class="cls-7" transform="translate(280.85 22.63)">IN<tspan class="cls-16" x="12" y="0">T</tspan><tspan x="18" y="0">.SUBSYS</tspan></text><text class="cls-7" transform="translate(545.95 22.63)">IN<tspan class="cls-16" x="12" y="0">T</tspan><tspan x="18" y="0">.SUBSYS.TYPE</tspan></text><text class="cls-7" transform="translate(363.99 82.27)">INT1</text><text class="cls-7" transform="translate(405.37 185.26)">INT2</text><text class="cls-7" transform="translate(337.82 279.22)">INT3</text><text class="cls-7" transform="translate(166.27 427.34)">IN<tspan class="cls-16" x="12" y="0">T</tspan><tspan x="18" y="0">.DB</tspan></text><text class="cls-7" transform="translate(527.55 435.18)">IN<tspan class="cls-16" x="12" y="0">T</tspan><tspan x="18" y="0">.KMS</tspan></text><text class="cls-7" transform="translate(476.13 487.81)">Credentials<tspan x="6.67" y="14.4">Manager</tspan><tspan x="-3.32" y="28.8">Microservice</tspan></text></svg>